<?xml version="1.0" encoding="utf-8"?>
<!-- Generator: Adobe Illustrator 27.5.0, SVG Export Plug-In . SVG Version: 6.00 Build 0)  -->
<svg version="1.1" xmlns="http://www.w3.org/2000/svg" xmlns:xlink="http://www.w3.org/1999/xlink" x="0px" y="0px"
	 viewBox="0 0 800 800" style="enable-background:new 0 0 800 800;" xml:space="preserve">
<g id="BACKGROUND">
	<g>
		<rect id="XMLID_72_" style="fill:#FFFFFF;" width="800" height="800"/>
		<g>
			<polygon style="fill:#F4F3F1;" points="744,173 746,440 620,440 634,168 			"/>
			<polygon style="fill:#F4F3F1;" points="634,435 642,142 582,141 574,439 			"/>
			<polygon style="fill:#F4F3F1;" points="360.667,442 502,437 497,41 443.667,43 441.667,177 408.667,231 411.667,308 363.667,307 
							"/>
			<polygon style="fill:#F4F3F1;" points="677,82 703,81 702,249 672,236 			"/>
			<polygon style="fill:#F4F3F1;" points="71,436 71,226 112,225 115,121 210,122 211,173 248,171 246,126 269,126 263,316 293,312 
				290,278 316,276 315,339 342,336 334,424 360,424 370,300 424,300 418,441 140,436 120,430 			"/>
			<polygon style="fill:#F4F3F1;" points="128,73 123,144 160,143 157,70 			"/>
			<polygon style="fill:#F4F3F1;" points="587.667,202.333 567,202.333 566.333,347.667 524.333,347.667 523.667,431.667 
				616.333,419.667 			"/>
			<polygon style="fill:#F4F3F1;" points="481,258.333 525.667,261.667 527.667,433 464.333,433.667 			"/>
		</g>
		<polygon style="fill:#C9C0AD;" points="61.667,543 383,543.667 479,539.333 489.667,544.333 759,540.333 751,530.333 
			750.333,477.667 756.333,460.333 759.667,457.667 203,457 197.667,449 56.333,452.333 		"/>
		<polygon style="fill:#9DBF9F;" points="59,731 757,738 740,719 758,707 744,683 766,610 761,590 767,573 469.667,575.667 400,565 
			50,572 72,586 59,599 74,631 47,663 		"/>
		<g>
			<polygon style="fill:#E9E5D9;" points="690,710.5 572.5,712 665,717.5 			"/>
			<polygon style="fill:#E9E5D9;" points="460.333,704.333 408.333,704.333 440.333,711 			"/>
			<polygon style="fill:#E9E5D9;" points="235,663.667 105.667,665.667 206.333,670.333 			"/>
			<polygon style="fill:#E9E5D9;" points="353.667,589 296.333,592.333 339.667,597 			"/>
			<polygon style="fill:#E9E5D9;" points="713,625.5 687.5,626 703.5,629 			"/>
			<polygon style="fill:#E9E5D9;" points="746,589 501.5,593 717,595.5 			"/>
			<polygon style="fill:#E9E5D9;" points="382.5,637 359,636.5 375,641 			"/>
			<polygon style="fill:#E9E5D9;" points="90.5,588.5 106,586 102,591.5 			"/>
			<polygon style="fill:#E9E5D9;" points="249.833,709.167 265.333,706.667 261.333,712.167 			"/>
			<polygon style="fill:#E9E5D9;" points="72,704 127.5,703.5 82,708.5 			"/>
		</g>
		<g>
			<polygon style="fill:#DDD6C5;" points="61,364 767,355 762,385 58,382 			"/>
			<polygon style="fill:#DDD6C5;" points="729,380.333 715.667,563.667 691,563.667 717.667,379 			"/>
			<polygon style="fill:#DDD6C5;" points="571.667,375 575.667,558.333 559.667,557.667 560.333,374.333 			"/>
			<polygon style="fill:#DDD6C5;" points="449,375 442.333,559.667 427.667,558.333 433,375.667 			"/>
			<polygon style="fill:#DDD6C5;" points="305.667,379.667 301.667,556.333 285.667,557 297,379 			"/>
			<polygon style="fill:#DDD6C5;" points="180,376 169,563 148,561 162,377 			"/>
			<polygon style="fill:#DDD6C5;" points="67.667,396.333 65,458.333 61,395.667 			"/>
			<polygon style="fill:#DDD6C5;" points="711.667,381.333 708,415 706.667,379.667 			"/>
			<polygon style="fill:#DDD6C5;" points="544,558.667 542,540.333 526.667,560.333 			"/>
			<polygon style="fill:#DDD6C5;" points="310.75,376.5 308.5,403.25 317.75,377.5 			"/>
			<polygon style="fill:#C9C0AD;" points="756.333,374.333 78.333,378.333 756.333,387.667 			"/>
			<polygon style="fill:#C9C0AD;" points="162.5,569 172.5,427 170,570 			"/>
			<polygon style="fill:#C9C0AD;" points="293.5,562.5 301,435 302.5,561.5 			"/>
			<polygon style="fill:#C9C0AD;" points="434,560 445,558 448.5,401 			"/>
			<polygon style="fill:#C9C0AD;" points="706.5,567 723,403 715.667,563.667 			"/>
		</g>
	</g>
</g>
<g id="OBJECTS">
	<g id="XMLID_2_">
		<g>
			<path style="fill:#FC6460;" d="M684.15,590.57c-2.03,5.89-5.81,14.64-13.01,23.37c-2,2.42-3.99,4.52-6.14,6.49
				c-1.85,0.47-3.82,1.02-5.91,1.66c4.48-4.8,9.13-10.14,13.82-16.08C677.09,600.69,680.83,595.52,684.15,590.57z"/>
			<path style="fill:#FC8B60;" d="M677.98,589.25c2.63,0.12,4.77,0.78,6.17,1.32c-3.32,4.95-7.06,10.12-11.24,15.44
				c-4.69,5.94-9.34,11.28-13.82,16.08c-6.7,2.06-14.5,5.08-22.78,9.56c-10.02,5.43-17.83,11.43-23.56,16.52
				c-1.7-1.4-3.51-3.17-5.25-5.35c-4.61-5.82-6.34-11.7-7.05-14.99c3.17-1.6,7.71-4.38,12.05-9.04c5.97-6.4,8.56-13.16,9.7-16.97
				c20.39,3.83,31.04,0.05,37.04-4.41C662.47,595,669.09,588.86,677.98,589.25z"/>
			<path style="fill:#FCBF60;" d="M659.09,622.09c2.09-0.64,4.06-1.19,5.91-1.66c-4.94,4.53-10.74,8.44-19.43,14.23
				c-6.84,4.57-16.38,10.51-28.37,16.69c-1.27-0.78-2.8-1.81-4.45-3.18c5.73-5.09,13.54-11.09,23.56-16.52
				C644.59,627.17,652.39,624.15,659.09,622.09z"/>
			<path style="fill:#EFD7B8;" d="M622.2,601.82c-1.14,3.81-3.73,10.57-9.7,16.97c-9.73-10.69-19.55-21.98-29.39-33.87
				c-6.81-8.23-13.34-16.41-19.61-24.52c-1.01-6.24-2.45-12.9-4.49-19.87c-7.39-25.2-19.4-43.52-28.08-54.67
				c3.1-3.3,7.19-7.07,12.45-10.61c3.06-2.07,6.02-3.72,8.72-5.04c6.09,23.82,16.97,54.99,37.25,87.74
				C600.17,575.41,611.58,589.95,622.2,601.82z"/>
			<path style="fill:#E9C99F;" d="M612.5,618.79c-4.34,4.66-8.88,7.44-12.05,9.04c-11.26-16.56-21.75-28.6-28.81-36.15
				c-2.08-2.22-4.09-4.31-6.05-6.29c-0.05-7.06-0.56-15.53-2.09-24.99c6.27,8.11,12.8,16.29,19.61,24.52
				C592.95,596.81,602.77,608.1,612.5,618.79z"/>
			<path style="fill:#F4DEC6;" d="M565.37,254.03c-2.16,1.14-6.79,3.94-10.07,9.24c-2.31-3.19-4.69-6.91-6.91-11.17
				c-1.02-1.95-1.92-3.85-2.72-5.68c0.37-0.87,1.92-4.21,5.77-6.04c4.6-2.18,8.89-0.51,9.59-0.22c2.79,4.53,5.58,9.07,8.37,13.59
				C568.06,253.85,566.71,253.94,565.37,254.03z"/>
			<path style="fill:#E9C99F;" d="M569.4,253.75c-2.89,7.04-5.78,14.08-8.66,21.12h-0.01c0.02-0.25,0.04-0.49,0.06-0.73
				c-1.02,0.28-2.45,0.6-4.17,0.69c-1.44,0.09-3.07,0.01-4.83-0.36c0.12-2.16,0.57-5.07,1.93-8.2c0.47-1.08,1-2.08,1.58-3
				c3.28-5.3,7.91-8.1,10.07-9.24C566.71,253.94,568.06,253.85,569.4,253.75z"/>
			<path style="fill:#EFD7B8;" d="M563.5,560.4c1.53,9.46,2.04,17.93,2.09,24.99c-11.53-11.66-20.92-19.36-27.92-27.4
				c-4.06-11.24-8.1-26.67-8.61-45.1C539.55,528.34,551,544.23,563.5,560.4z"/>
			<path style="fill:#E0BC90;" d="M560.69,239.6c0.11,0.19,0.23,0.37,0.34,0.56c-0.7-0.29-4.99-1.96-9.59,0.22
				c-3.85,1.83-5.4,5.17-5.77,6.04c0.8,1.83,1.7,3.73,2.72,5.68c2.22,4.26,4.6,7.98,6.91,11.17c-0.58,0.92-1.11,1.92-1.58,3
				c-1.36,3.13-1.81,6.04-1.93,8.2c-7.72-1.64-11.72-7.75-12.55-9.09c-0.17-2.44-0.21-5.71,0.26-9.52c0.08-0.64,0.38-2.97,1.57-7.65
				c2.2-8.65,3.34-12.99,5.76-13.79c0.82-0.27,2.89-0.61,6.52,2.32C555.8,237.69,558.24,238.65,560.69,239.6z"/>
			<path style="fill:#F4DEC6;" d="M560.79,274.14c-0.02,0.24-0.04,0.48-0.06,0.73c-1.15,14.82-3.41,31.3-7.41,48.98
				c-1.89,8.36-4,16.25-6.26,23.67c0.16-0.57,0.27-1.15,0.35-1.75c0.8-6.28-3.12-12.07-9.01-13.79
				c4.72-13.29,10.35-21.7,14.58-37.32c1.21-4.49,2.77-11.25,3.64-19.83C558.34,274.74,559.77,274.42,560.79,274.14z"/>
			<path style="fill:#E0BC90;" d="M559.01,540.53c2.04,6.97,3.48,13.63,4.49,19.87c-12.5-16.17-23.95-32.06-34.44-47.51v-0.01
				c-0.05-1.92-0.07-3.88-0.04-5.86c0.12-7.74,0.86-14.83,1.91-21.16C539.61,497.01,551.62,515.33,559.01,540.53z"/>
			<path style="fill:#EFD7B8;" d="M551.79,274.47c1.76,0.37,3.39,0.45,4.83,0.36c-0.87,8.58-2.43,15.34-3.64,19.83
				c-4.23,15.62-9.86,24.03-14.58,37.32c-0.64-0.19-1.3-0.33-1.98-0.42c-1.92-0.25-3.79-0.05-5.52,0.52v-0.01
				c0.12-2.96,0.48-7.95,1.82-13.96c0.64-2.87,1.38-5.44,2.18-7.78c5.59-5.26,14.44-15.37,16.46-29.78
				C551.66,278.44,551.79,276.4,551.79,274.47z"/>
			<path style="fill:#E9C99F;" d="M551.79,274.47c0,1.93-0.13,3.97-0.43,6.08c-2.02,14.41-10.87,24.52-16.46,29.78
				c4.17-12.25,9.78-18.39,9.41-28.97c-0.12-3.57-0.98-9.15-5.07-15.98C540.07,266.72,544.07,272.83,551.79,274.47z"/>
			<path style="fill:#EFD7B8;" d="M538.4,331.98c5.89,1.72,9.81,7.51,9.01,13.79c-0.08,0.6-0.19,1.18-0.35,1.75
				c-0.02,0.08-0.05,0.16-0.07,0.24c-1.73,5.87-7.52,9.79-13.79,8.99c-0.26-0.03-0.51-0.07-0.76-0.12c0.39-2.76,1.1-7.16,2.37-12.47
				C535.91,339.57,537.12,335.6,538.4,331.98z"/>
			<path style="fill:#F4DEC6;" d="M552.1,470.21c-2.7,1.32-5.66,2.97-8.72,5.04c-5.26,3.54-9.35,7.31-12.45,10.61
				c-17.11,1.45-36.19,2-56.87,0.88c-19.19-1.04-37.14-3.35-53.7-6.46c1.45-4.49,3.16-9.18,5.2-14.04
				c6.49-15.44,14.25-27.69,21.03-36.78c10.06,2.05,20.73,4.7,31.88,8.12C508.95,446.95,533.63,459.24,552.1,470.21z"/>
			<path style="fill:#E0BC90;" d="M536.42,331.56c0.68,0.09,1.34,0.23,1.98,0.42c-1.28,3.62-2.49,7.59-3.59,12.18
				c-2.85-2.93-5.64-6.08-8.43-9.5c1.3-1.16,2.84-2.04,4.52-2.58C532.63,331.51,534.5,331.31,536.42,331.56z"/>
			<path style="fill:#E9C99F;" d="M525.2,352.45c-4.69-5.06-9.42-10.46-14.13-16.22c-11.16-13.63-22.36-28.71-30.75-41.97
				c-0.53-3.8-0.85-6.79-1.23-9.55c1.03-0.08,2.04-0.25,3.01-0.49c2.25,1.79,4.59,3.58,7.01,5.34c3.82,2.8,7.63,5.41,11.41,7.85
				c1.29,2.12,2.62,4.27,4.02,6.43c7.81,12.08,14.82,22.25,21.84,30.82c2.79,3.42,5.58,6.57,8.43,9.5
				c-1.27,5.31-1.98,9.71-2.37,12.47c-2.73-0.52-5.11-1.88-6.9-3.8C525.42,352.7,525.31,352.58,525.2,352.45z"/>
			<path style="fill:#EFD7B8;" d="M532.72,318.11c-1.34,6.01-1.7,11-1.82,13.96v0.01c-1.68,0.54-3.22,1.42-4.52,2.58
				c-7.02-8.57-14.03-18.74-21.84-30.82c-1.4-2.16-2.73-4.31-4.02-6.43c9.35,6.05,18.56,11.06,27.35,15.23l0.01,0.01
				C529.52,314.57,531.14,316.39,532.72,318.11z"/>
			<path style="fill:#E9C99F;" d="M529.06,512.89c0.51,18.43,4.55,33.86,8.61,45.1c-5.19-5.94-9.08-12.06-11.59-20.1
				c-3.9-12.55-2.64-23.99-1.32-30.87c-5.09-1.98-12.82-4.66-22.48-6.61c-23.56-4.75-42.06-1.87-48.72-1.1
				c-9.58,1.1-21.91,0.92-37.63-2.67c1.1-5.01,2.53-10.51,4.43-16.36c16.56,3.11,34.51,5.42,53.7,6.46
				c20.68,1.12,39.76,0.57,56.87-0.88c-1.05,6.33-1.79,13.42-1.91,21.16c-0.03,1.98-0.01,3.94,0.04,5.86V512.89z"/>
			<path style="fill:#F4DEC6;" d="M512.67,292.43c5.07,7.71,10.25,14.43,15.2,20.21c-8.79-4.17-18-9.18-27.35-15.23
				c-3.73-6.16-7.01-12.14-9.9-17.87c3.72-3.5,6.04-8.47,6.04-13.98c0-1.05-0.08-2.07-0.24-3.07
				C500.32,271.43,505.58,281.66,512.67,292.43z"/>
			<path style="fill:#E0BC90;" d="M490.62,279.54c2.89,5.73,6.17,11.71,9.9,17.87c-3.78-2.44-7.59-5.05-11.41-7.85
				c-2.42-1.76-4.76-3.55-7.01-5.34C485.35,283.4,488.27,281.77,490.62,279.54z"/>
			<path style="fill:#F4DEC6;" d="M490.62,279.54c-2.35,2.23-5.27,3.86-8.52,4.68c-0.97,0.24-1.98,0.41-3.01,0.49
				c-0.36-2.58-0.79-4.96-1.5-7.62c-1.76-6.54-5.45-15.31-13.98-24.9c3.11-3.24,7.36-5.38,12.1-5.79c0.01,0,0.02,0,0.03,0
				c1.76,0.04,3.15,0.21,4.05,0.34c0.03-0.09,0.07-0.17,0.1-0.26c8.45,1.08,15.19,7.64,16.53,16.01c0.16,1,0.24,2.02,0.24,3.07
				C496.66,271.07,494.34,276.04,490.62,279.54z"/>
			<path style="fill:#FC8B60;" d="M479.09,284.71c0.38,2.76,0.7,5.75,1.23,9.55c0.44,3.11,1.02,6.76,1.9,11.27
				c1.48,7.6,3.06,13.77,4.18,17.86c-17.19,2.79-34.39,5.58-51.58,8.38c-3.48-12.11-6.04-21.99-7.72-28.66
				c-4.83-19.25-6.29-27.83-12.78-38.8c-3.55-5.99-7.26-10.42-9.84-13.24c1.9-1.34,3.81-2.58,5.71-3.74c3.02,2.75,6.1,5.95,9.05,9.7
				c7.48,9.52,11.82,19.58,14.35,28.57c2.04,7.24,2.91,13.78,3.29,18.76c1.05,0.88,10.51,8.6,22.19,5.58
				c6.08-1.57,9.93-5.32,11.61-7.2c0.84-5.35,1.42-13.18-0.3-22.34c-2.22-11.9-7.32-20.77-11.23-26.24c-0.71-1.01-1.39-1.9-2-2.67
				c0.83-0.53,1.72-1.04,2.65-1.51c0.41-0.21,0.81-0.4,1.21-0.58c0.91,0.94,1.78,1.87,2.6,2.79c8.53,9.59,12.22,18.36,13.98,24.9
				C478.3,279.75,478.73,282.13,479.09,284.71z"/>
			<path style="fill:#C5514F;" d="M434.82,331.77c17.19-2.8,34.39-5.59,51.58-8.38c-1.93,2.53-4.8,5.74-8.81,8.82
				c-4.19,3.21-8.21,5.18-11.25,6.39c-5.43,0.73-10.85,1.47-16.28,2.2c-8.68,1.18-17.36,2.35-26.04,3.53
				C427.62,340.14,431.22,335.95,434.82,331.77z"/>
			<path style="fill:#F4DEC6;" d="M486.3,202.99c0.46,6.51,0.43,14.91-1.22,24.5c-1.28,7.46-3.23,13.84-5.19,18.99
				c-0.81-0.11-1.63-0.16-2.47-0.16c-0.57,0-1.13,0.02-1.68,0.08c-0.01,0-0.02,0-0.03,0c-1.13-0.02-2.41,0-3.81,0.13
				c-0.75-2.51-1.44-5.67-1.66-9.34c-0.42-6.84,0.97-12.44,2.2-16.02c-0.66-0.08-3.38-0.49-6.29-2.25v-0.01
				c-0.35-0.64-2.35-4.42-0.9-8.99c1.34-4.24,4.69-6.19,5.42-6.59c5.21-0.78,10.42-1.56,15.63-2.34c0.02,0.3,0.02,0.59,0.02,0.89
				C486.32,202.25,486.31,202.62,486.3,202.99z"/>
			<path style="fill:#EFD7B8;" d="M486.3,200.99c-5.21,0.78-10.42,1.56-15.63,2.34c-0.44-2.83-1.21-6.22-2.59-9.91
				c-0.95-2.56-2.01-4.79-3.05-6.69c0.72-1.05,1.59-1.98,2.6-2.75c0.49-0.38,1.02-0.72,1.58-1.02c2.36-1.27,4.75-1.48,6.74-1.3
				c2.6,0.24,4.54,1.17,4.87,1.33l0.01,0.01C484.15,188.22,486.14,194.38,486.3,200.99z"/>
			<path style="fill:#966B4E;" d="M480.82,182.99c-0.33-0.16-2.27-1.09-4.87-1.33c-1.33-5.93-3.96-9.57-5.86-11.63
				c-8.72-9.46-25.49-11.07-42.03-3.97c8.53-6.3,17.2-8.33,21.76-9.08c15.79,0.53,27.74,6.76,30.85,15.84
				c0.74,2.17,1.33,5.52,0.16,10.18L480.82,182.99z"/>
			<path style="fill:#E0BC90;" d="M471.9,246.53c1.4-0.13,2.68-0.15,3.81-0.13c-4.74,0.41-8.99,2.55-12.1,5.79
				c-0.82-0.92-1.69-1.85-2.6-2.79c3.5-1.6,6.86-2.4,9.79-2.75h0.01C471.18,246.6,471.55,246.56,471.9,246.53z"/>
			<path style="fill:#7A5237;" d="M475.95,181.66c-1.99-0.18-4.38,0.03-6.74,1.3c-0.56,0.3-1.09,0.64-1.58,1.02
				c-4.77-2.11-10.81-4.25-17.97-5.58c-14.27-2.64-26.35-0.84-33.89,0.97c0.46-0.74,0.97-1.52,1.54-2.32
				c1.15-1.63,2.52-3.36,4.15-5.11c1.1-1.18,2.32-2.36,3.66-3.53c0.97-0.85,1.96-1.63,2.94-2.35c16.54-7.1,33.31-5.49,42.03,3.97
				C471.99,172.09,474.62,175.73,475.95,181.66z"/>
			<path style="fill:#EFD7B8;" d="M454.31,236.97c-1.6-1.73-3.05-3.75-4.21-6.1c-0.99-2.01-1.64-3.99-2.05-5.88
				c1.12-0.55,1.83-1.61,1.83-2.74c-0.01-0.94-0.52-1.6-0.71-1.83c-1.22-0.18-2.29-0.85-2.67-1.84c-0.58-1.48,0.43-3.65,2.67-4.41
				c-0.27-3.01-2.23-5.59-5-6.59c-3.06-1.09-6.55-0.06-8.62,2.57c0.13-0.37,2.06-5.84,6.18-6.61c4.3-0.82,10.19,3.66,11.02,11.46
				c1.42-3.34,3.16-6.95,5.29-10.73c0.21-0.37,0.42-0.73,0.63-1.09c-0.16,1.16-0.74,6.52,2.9,11.53c1.38,1.9,3.01,3.25,4.58,4.21
				c2.91,1.76,5.63,2.17,6.29,2.25c-1.23,3.58-2.62,9.18-2.2,16.02c0.22,3.67,0.91,6.83,1.66,9.34c-0.35,0.03-0.72,0.07-1.09,0.12
				h-0.01c-1.52-0.44-4.35-1.33-7.55-2.98C460.32,242.15,457.09,239.99,454.31,236.97z"/>
			<path style="fill:#EFD7B8;" d="M470.38,280.4c1.72,9.16,1.14,16.99,0.3,22.34c-1.68,1.88-5.53,5.63-11.61,7.2
				c-2.06-4.03-4.07-8.43-5.95-13.23c-4.48-11.42-7.02-22.06-8.45-31.15c2.13-0.86,4.98-2.26,7.93-4.56
				c3.04-2.37,5.15-4.88,6.55-6.84C463.06,259.63,468.16,268.5,470.38,280.4z"/>
			<path style="fill:#E9C99F;" d="M470.67,203.33c-0.73,0.4-4.08,2.35-5.42,6.59c-1.45,4.57,0.55,8.35,0.9,8.99v0.01
				c-1.57-0.96-3.2-2.31-4.58-4.21c-3.64-5.01-3.06-10.37-2.9-11.53c0.26-0.45,0.52-0.89,0.78-1.33c1.15-1.91,2.3-3.7,3.44-5.37
				c-0.47-2.97,0.04-5.9,1.32-8.37c0.24-0.48,0.52-0.94,0.82-1.38c1.04,1.9,2.1,4.13,3.05,6.69
				C469.46,197.11,470.23,200.5,470.67,203.33z"/>
			<path style="fill:#FC6460;" d="M450.06,340.8c5.43-0.73,10.85-1.47,16.28-2.2c-3.07,17.32-8.36,37.87-17.63,59.96
				c-2.41,5.75-4.93,11.21-7.49,16.36c2.45-10.62,4.64-22.43,6.24-35.32C449.2,365.54,449.93,352.52,450.06,340.8z"/>
			<path style="fill:#BC723F;" d="M467.63,183.98c-1.01,0.77-1.88,1.7-2.6,2.75c-0.3,0.44-0.58,0.9-0.82,1.38
				c-2.54-1.17-5.29-2.27-8.23-3.24c-16.33-5.36-31.43-4.23-41.9-2.21c0.38-0.83,0.77-1.66,1.19-2.49c0.16-0.26,0.32-0.53,0.5-0.8
				c7.54-1.81,19.62-3.61,33.89-0.97C456.82,179.73,462.86,181.87,467.63,183.98z"/>
			<path style="fill:#F4DEC6;" d="M457.15,251.49c-7.82,4.9-11.39,11.74-12.48,14.07c1.43,9.09,3.97,19.73,8.45,31.15
				c1.88,4.8,3.89,9.2,5.95,13.23c-11.68,3.02-21.14-4.7-22.19-5.58c-0.38-4.98-1.25-11.52-3.29-18.76l0.46-0.13
				c0.25-4.99,0.4-10.14,0.44-15.43c0.08-11.88-0.43-23.08-1.33-33.52c1.82-0.64,3.6-1.21,5.32-1.72c3.18,1.22,6.58,1.99,10.12,2.23
				c5.97,5,12.82,6.33,14.65,6.64c3.2,1.65,6.03,2.54,7.55,2.98c-2.93,0.35-6.29,1.15-9.79,2.75c-0.4,0.18-0.8,0.37-1.21,0.58
				C458.87,250.45,457.98,250.96,457.15,251.49z"/>
			<path style="fill:#966B4E;" d="M464.21,188.11c-1.28,2.47-1.79,5.4-1.32,8.37c-1.14,1.67-2.29,3.46-3.44,5.37
				c-2.86-0.4-5.83-0.95-8.91-1.69c-15.6-3.77-27.77-10.93-36.46-17.5c10.47-2.02,25.57-3.15,41.9,2.21
				C458.92,185.84,461.67,186.94,464.21,188.11z"/>
			<path style="fill:#E9C99F;" d="M454.31,236.97c2.78,3.02,6.01,5.18,8.94,6.7c-1.83-0.31-8.68-1.64-14.65-6.64
				c0.82,0.06,1.65,0.09,2.48,0.09C452.17,237.12,453.25,237.07,454.31,236.97z"/>
			<path style="fill:#7A5237;" d="M459.45,201.85c-0.26,0.44-0.52,0.88-0.78,1.33c-0.21,0.36-0.42,0.72-0.63,1.09
				c-2.13,3.78-3.87,7.39-5.29,10.73c-0.83-7.8-6.72-12.28-11.02-11.46c-4.12,0.77-6.05,6.24-6.18,6.61
				c-0.02,0.6-0.09,3.68,1.38,6.94c0,0,0,0,0,0.01c0.17,0.57,0.8,2.93,0.5,5.87h-0.01c-3.27-4.35-6.6-9.15-9.88-14.44
				c-5.68-9.16-10.06-17.94-13.46-25.87c8.69,6.57,20.86,13.73,36.46,17.5C453.62,200.9,456.59,201.45,459.45,201.85z"/>
			<path style="fill:#E0BC90;" d="M457.15,251.49c0.61,0.77,1.29,1.66,2,2.67c-1.4,1.96-3.51,4.47-6.55,6.84
				c-2.95,2.3-5.8,3.7-7.93,4.56C445.76,263.23,449.33,256.39,457.15,251.49z"/>
			<path style="fill:#E0BC90;" d="M454.31,236.97c-1.06,0.1-2.14,0.15-3.23,0.15c-0.83,0-1.66-0.03-2.48-0.09
				c-1.87-1.56-3.66-3.49-5.18-5.86c-2.42-3.77-3.41-7.49-3.83-10.16c0.25,0.25,0.52,0.51,0.81,0.75c2.96,2.54,6.24,3.08,7.65,3.23
				c0.41,1.89,1.06,3.87,2.05,5.88C451.26,233.22,452.71,235.24,454.31,236.97z"/>
			<path style="fill:#C5514F;" d="M424.02,344.33c8.68-1.18,17.36-2.35,26.04-3.53c-0.13,11.72-0.86,24.74-2.6,38.8
				c-1.6,12.89-3.79,24.7-6.24,35.32c-0.24,0.5-0.49,0.99-0.74,1.47c-6-0.86-13.13-2.28-20.96-4.7c-0.2-10.31,0-21.33,0.75-32.97
				C421.06,366.42,422.39,354.92,424.02,344.33z"/>
			<path style="fill:#E9C99F;" d="M436.93,217.09c-1.47-3.26-1.4-6.34-1.38-6.94c2.07-2.63,5.56-3.66,8.62-2.57
				c2.77,1,4.73,3.58,5,6.59c-2.24,0.76-3.25,2.93-2.67,4.41c0.38,0.99,1.45,1.66,2.67,1.84c0.19,0.23,0.7,0.89,0.71,1.83
				c0,1.13-0.71,2.19-1.83,2.74c-1.41-0.15-4.69-0.69-7.65-3.23c-0.29-0.24-0.56-0.5-0.81-0.75V221c-1.22-1.23-2.06-2.58-2.66-3.9
				C436.93,217.09,436.93,217.09,436.93,217.09z"/>
			<path style="fill:#E9E5D9;" d="M446.59,429.45v0.01c-6.78,9.09-14.54,21.34-21.03,36.78c-2.04,4.86-3.75,9.55-5.2,14.04
				c-1.58-0.29-3.15-0.59-4.71-0.91c2.27-7.99,5.37-16.75,9.69-25.92c4.69-9.96,9.85-18.37,14.71-25.26
				C442.2,428.58,444.38,429,446.59,429.45z"/>
			<path style="fill:#EFD7B8;" d="M436.17,227.46c0.74-1.54,1.11-3.08,1.26-4.49c0.3-2.94-0.33-5.3-0.5-5.87
				c0.6,1.32,1.44,2.67,2.66,3.9v0.01c0.42,2.67,1.41,6.39,3.83,10.16c1.52,2.37,3.31,4.3,5.18,5.86
				c-3.54-0.24-6.94-1.01-10.12-2.23c-2.03-0.78-3.97-1.74-5.8-2.86c0.79-0.65,1.51-1.4,2.14-2.24
				C435.37,228.96,435.82,228.21,436.17,227.46z"/>
			<path style="fill:#966B4E;" d="M416.47,195.22c-1.29-4.68-1.99-8.99-2.39-12.56c3.4,7.93,7.78,16.71,13.46,25.87
				c3.28,5.29,6.61,10.09,9.88,14.44h0.01c-0.15,1.41-0.52,2.95-1.26,4.49c-1.98-1.79-4.43-4.33-6.35-6.58
				C422.66,212.48,418.69,203.29,416.47,195.22z"/>
			<path style="fill:#FC6460;" d="M440.48,416.39c-1.91,3.79-3.84,7.41-5.78,10.86c-5.1-0.86-10-1.56-14.69-2.13
				c-0.23-4.33-0.4-8.81-0.49-13.43C427.35,414.11,434.48,415.53,440.48,416.39z"/>
			<path style="fill:#F9F8F7;" d="M434.7,427.25c1.76,0.29,3.54,0.6,5.35,0.94c-4.86,6.89-10.02,15.3-14.71,25.26
				c-4.32,9.17-7.42,17.93-9.69,25.92c-21.71-4.33-40.92-9.96-57.28-15.72l-0.02,0.01c-3.57-8.02-6.23-18.75-3.92-31.15
				c4.03-21.68,20.36-32.85,23.37-34.83l0.47,0.11c8.37,7.26,17.57,14.53,27.67,21.6c2.44,1.71,4.86,3.37,7.27,4.96
				c2.21,0.23,4.48,0.48,6.8,0.77C424.7,425.69,429.6,426.39,434.7,427.25z"/>
			<path style="fill:#BC723F;" d="M436.17,227.46c-0.35,0.75-0.8,1.5-1.35,2.24c-0.63,0.84-1.35,1.59-2.14,2.24
				c-10.1-6.2-16.84-17.34-16.84-30.06c0-2.28,0.22-4.5,0.63-6.66c2.22,8.07,6.19,17.26,13.35,25.66
				C431.74,223.13,434.19,225.67,436.17,227.46z"/>
			<path style="fill:#FC6460;" d="M434.82,331.77c-3.6,4.18-7.2,8.37-10.8,12.56c-1.63,10.59-2.96,22.09-3.75,34.39
				c-0.75,11.64-0.95,22.66-0.75,32.97c-5.9-1.81-12.2-4.19-18.7-7.33c0.03-4.32,0-8.7-0.1-13.15c-0.5-22.55-2.67-43.68-5.88-63.19
				l-0.58-0.64c0.41,0,0.78-0.01,1.1-0.02c2.49-1.56,5.69-3.86,8.91-7.07c2.65-2.66,5.32-5.92,7.62-9.91
				c11.89-20.59,3.75-42.65,2.43-46.07c6.49,10.97,7.95,19.55,12.78,38.8C428.78,309.78,431.34,319.66,434.82,331.77z"/>
			<path style="fill:#E9C99F;" d="M433.16,236.52c0.9,10.44,1.41,21.64,1.33,33.52c-0.04,5.29-0.19,10.44-0.44,15.43l-0.46,0.13
				c-2.53-8.99-6.87-19.05-14.35-28.57c-2.95-3.75-6.03-6.95-9.05-9.7c2.72-1.66,5.44-3.16,8.11-4.51
				C423.46,240.21,428.47,238.15,433.16,236.52z"/>
			<path style="fill:#E0BC90;" d="M438.48,234.8c-1.72,0.51-3.5,1.08-5.32,1.72c-4.69,1.63-9.7,3.69-14.86,6.3
				c0.85-1.35,1.7-2.93,2.41-4.75c0.38-0.96,0.69-1.91,0.94-2.84c0.02-0.05,0.03-0.09,0.03-0.13c1.13,0.14,2.26,0.15,3.37,0.04
				c2.82-0.29,5.49-1.4,7.63-3.2C434.51,233.06,436.45,234.02,438.48,234.8z"/>
			<path style="fill:#7A5237;" d="M415.84,201.88c0,12.72,6.74,23.86,16.84,30.06c-2.14,1.8-4.81,2.91-7.63,3.2
				c-3.33-2.11-7.66-5.56-11.06-10.95c-9.03-14.3-4.2-30.62-2.48-35.41c0.17-0.49,0.32-0.86,0.41-1.09
				c0.11-0.28,0.22-0.56,0.33-0.84c0.56-1.39,1.17-2.79,1.83-4.19c0.4,3.57,1.1,7.88,2.39,12.56
				C416.06,197.38,415.84,199.6,415.84,201.88z"/>
			<path style="fill:#966B4E;" d="M421.68,235.1c-0.23-0.03-0.47-0.07-0.7-0.11c-3.23-1.19-5.52-2.8-7.18-4.41
				c-7.63-7.4-8.78-21.35-3.93-37.04c0.3-1.01,0.64-2.03,1-3.05c0.2-0.57,0.41-1.14,0.64-1.71c-1.72,4.79-6.55,21.11,2.48,35.41
				c3.4,5.39,7.73,8.84,11.06,10.95C423.94,235.25,422.81,235.24,421.68,235.1z"/>
			<path style="fill:#F9F8F7;" d="M420.36,480.28c-1.9,5.85-3.33,11.35-4.43,16.36c-1.32-0.29-2.66-0.62-4.02-0.97
				c0.88-4.91,2.08-10.39,3.74-16.3C417.21,479.69,418.78,479.99,420.36,480.28z"/>
			<path style="fill:#BC723F;" d="M421.46,171.94c-1.63,1.75-3,3.48-4.15,5.11c-0.37-1.12-1.58-4.31-4.76-6.1
				c-4.1-2.32-9.81-1.38-14,2.53c4.06-6.37,12.66-10.28,18.19-7.42C417.87,166.65,420.02,168.11,421.46,171.94z"/>
			<path style="fill:#FC8B60;" d="M400.82,404.36c6.5,3.14,12.8,5.52,18.7,7.33c0.09,4.62,0.26,9.1,0.49,13.43
				c-2.32-0.29-4.59-0.54-6.8-0.77c-2.41-1.59-4.83-3.25-7.27-4.96c-10.1-7.07-19.3-14.34-27.67-21.6l-0.47-0.11
				c0.55-2.01,1.07-4.08,1.57-6.21c5.67,4.17,12.6,8.59,20.84,12.6C400.41,404.17,400.62,404.27,400.82,404.36z"/>
			<path style="fill:#7A5237;" d="M415.77,179.37c-0.18,0.27-0.34,0.54-0.5,0.8c-0.42,0.83-0.81,1.66-1.19,2.49
				c-0.66,1.4-1.27,2.8-1.83,4.19c-1.74-0.52-3.99-1.41-6.31-3.01c-4.64-3.18-6.92-7.32-7.91-9.48c0.16-0.3,0.33-0.59,0.52-0.88
				c4.19-3.91,9.9-4.85,14-2.53c3.18,1.79,4.39,4.98,4.76,6.1C416.74,177.85,416.23,178.63,415.77,179.37z"/>
			<path style="fill:#EFD7B8;" d="M414.32,264.31c1.32,3.42,9.46,25.48-2.43,46.07c-2.3,3.99-4.97,7.25-7.62,9.91l-0.01-0.01
				c-2.1-3.04-5.13-6.71-9.34-10.23c-3.79-3.16-7.63-5.44-11.14-7.09c0.55,0.06,1.1,0.08,1.66,0.08c10.62,0,19.23-8.61,19.23-19.23
				c0-9.66-7.11-17.65-16.37-19.03c2.43-2.49,5.09-4.99,8.01-7.45c2.7-2.28,5.43-4.37,8.17-6.26
				C407.06,253.89,410.77,258.32,414.32,264.31z"/>
			<path style="fill:#D8D0BB;" d="M358.37,463.65c16.36,5.76,35.57,11.39,57.28,15.72c-1.66,5.91-2.86,11.39-3.74,16.3
				c-4.61-1.17-9.49-2.64-14.66-4.44c-5.67-1.97-11.69-4.35-18.08-7.2c-3.57-1.59-7.26-3.32-11.07-5.22
				c-0.98-1.05-5.89-6.54-9.75-15.15L358.37,463.65z"/>
			<path style="fill:#966B4E;" d="M412.25,186.85c-0.11,0.28-0.22,0.56-0.33,0.84c-0.09,0.23-0.24,0.6-0.41,1.09
				c-0.23,0.57-0.44,1.14-0.64,1.71l-0.08-0.03c-2.08,0.26-3.67-0.07-4.74-0.44c-4.9-1.7-8.23-7.34-8.71-14.26
				c0.2-0.48,0.43-0.95,0.69-1.4c0.99,2.16,3.27,6.3,7.91,9.48C408.26,185.44,410.51,186.33,412.25,186.85z"/>
			<path style="fill:#BC723F;" d="M410.79,190.46l0.08,0.03c-0.36,1.02-0.7,2.04-1,3.05h-0.01c-1.75,0.78-5.16,1.96-8.26,0.59
				c-5.65-2.5-6.96-12-4.26-18.37c0.48,6.92,3.81,12.56,8.71,14.26C407.12,190.39,408.71,190.72,410.79,190.46z"/>
			<path style="fill:#E9C99F;" d="M404.26,320.28l0.01,0.01c-3.22,3.21-6.42,5.51-8.91,7.07c-0.32,0.01-0.69,0.02-1.1,0.02
				c-2.49,0-6.48-0.37-10.81-2.45c-5.42-2.61-8.49-6.53-9.88-8.58c0,0,0.01-0.01,0-0.01c-0.99-6.49-1.64-12.58-2.06-17.82v-0.01
				c0.43-0.07,0.85-0.15,1.27-0.23c2.99,2.63,6.81,4.33,11,4.68c3.51,1.65,7.35,3.93,11.14,7.09
				C399.13,313.57,402.16,317.24,404.26,320.28z"/>
			<path style="fill:#C5514F;" d="M400.72,391.21c0.1,4.45,0.13,8.83,0.1,13.15c-0.2-0.09-0.41-0.19-0.61-0.29
				c-8.24-4.01-15.17-8.43-20.84-12.6c1.8-7.71,3.24-16.19,4.01-25.39c0.28-3.32,0.45-6.55,0.54-9.68
				C389.15,370.42,395.22,382.07,400.72,391.21z"/>
			<path style="fill:#F4DEC6;" d="M383.78,302.96c-4.19-0.35-8.01-2.05-11-4.68c-3.46-3.02-5.83-7.28-6.42-12.08
				c-0.1-0.78-0.15-1.58-0.15-2.39c0-5.1,1.98-9.74,5.22-13.18c3.51-3.73,8.49-6.06,14.01-6.06c0.97,0,1.93,0.07,2.86,0.21
				c9.26,1.38,16.37,9.37,16.37,19.03c0,10.62-8.61,19.23-19.23,19.23C384.88,303.04,384.33,303.02,383.78,302.96z"/>
			<path style="fill:#FC8B60;" d="M394.84,328.02c3.21,19.51,5.38,40.64,5.88,63.19c-5.5-9.14-11.57-20.79-16.8-34.81
				c-2-5.35-3.87-11.04-5.54-17.07c-2.14-7.72-3.69-15.6-4.81-22.98c1.39,2.05,4.46,5.97,9.88,8.58c4.33,2.08,8.32,2.45,10.81,2.45
				L394.84,328.02z"/>
			<path style="fill:#D8D0BB;" d="M397.25,491.23c-2.54,4.3-5.35,8.76-8.48,13.34c-4.59-0.9-9.76-2.14-15.36-3.88
				c3.92-8.09,5.36-14.68,5.76-16.66C385.56,486.88,391.58,489.26,397.25,491.23z"/>
			<path style="fill:#E9E5D9;" d="M388.77,504.57c-0.87,1.29-1.78,2.59-2.71,3.9c-4.47-0.77-9.5-1.86-14.95-3.4
				c0.85-1.49,1.61-2.96,2.3-4.38C379.01,502.43,384.18,503.67,388.77,504.57z"/>
			<path style="fill:#EFD7B8;" d="M386.06,508.47c-3.45,4.87-7.24,9.85-11.42,14.87c-10.96,13.18-22.32,24.03-33.13,32.9
				c-7.79,2.23-15.64,4.56-23.53,7c-5.1,1.58-10.2,3.19-15.3,4.85h-0.01c-2.16,0.7-4.31,1.41-6.47,2.12
				c-0.13-6.27-0.86-13.75-2.91-21.96c-0.88-3.53-1.9-6.79-2.98-9.77c4.33,1.21,30.15,7.9,55.89-7.65
				c12.18-7.36,19.97-17.06,24.91-25.76C376.56,506.61,381.59,507.7,386.06,508.47z"/>
			<path style="fill:#E9E5D9;" d="M379.17,484.03c-0.4,1.98-1.84,8.57-5.76,16.66c-4.56-1.42-9.4-3.18-14.43-5.35
				c-12.76-5.51-22.81-12.01-30.18-17.58c3.41-4.17,7.37-8.56,11.96-13.06c-0.53-6.54-0.71-20.04,6.17-34.83
				c9.25-19.88,25.3-29.26,30.87-32.19c-3.01,1.98-19.34,13.15-23.37,34.83c-2.31,12.4,0.35,23.13,3.92,31.15
				c3.86,8.61,8.77,14.1,9.75,15.15C371.91,480.71,375.6,482.44,379.17,484.03z"/>
			<path style="fill:#E9C99F;" d="M300.61,296.35c3.52-0.54,7.62-1.18,12.09-1.86v-0.01c16.57-2.55,38.13-5.88,53.66-8.28
				c0.59,4.8,2.96,9.06,6.42,12.08c-0.42,0.08-0.84,0.16-1.27,0.23v0.01c-9.55,1.75-19.39,3.39-29.49,4.91
				c-16.47,2.47-32.4,4.41-47.7,5.91v-0.01c-0.33,0.19-0.66,0.36-1.01,0.52c-0.15-0.71-0.32-1.44-0.54-2.19
				c-1.12-3.92-2.96-7.04-4.72-9.37C288.05,298.29,292.97,297.53,300.61,296.35z"/>
			<path style="fill:#F9F8F7;" d="M373.41,500.69c-0.69,1.42-1.45,2.89-2.3,4.38c-5.05-1.42-10.45-3.22-16.09-5.54
				c-12.67-5.19-22.74-11.36-30.2-16.7c1.24-1.65,2.56-3.34,3.98-5.07c7.37,5.57,17.42,12.07,30.18,17.58
				C364.01,497.51,368.85,499.27,373.41,500.69z"/>
			<path style="fill:#F4DEC6;" d="M333.83,277.65c3.09-1.58,6.49-3.02,10.22-4.21c11.34-3.61,21.25-3.43,27.38-2.81
				c-3.24,3.44-5.22,8.08-5.22,13.18c0,0.81,0.05,1.61,0.15,2.39c-15.53,2.4-37.09,5.73-53.66,8.28
				C316.02,290.57,322.95,283.25,333.83,277.65z"/>
			<path style="fill:#F4DEC6;" d="M355.02,499.53c5.64,2.32,11.04,4.12,16.09,5.54c-4.94,8.7-12.73,18.4-24.91,25.76
				c-25.74,15.55-51.56,8.86-55.89,7.65c11.84-7.52,13.44-21.16,24.8-40.94c2.38-4.14,5.54-9.16,9.71-14.71
				C332.28,488.17,342.35,494.34,355.02,499.53z"/>
			<path style="fill:#E9C99F;" d="M333.83,277.65c-10.88,5.6-17.81,12.92-21.13,16.83v0.01c-4.47,0.68-8.57,1.32-12.09,1.86
				c-0.76-4.84-4.25-8.85-8.97-10.24C304.98,282.97,319.06,280.09,333.83,277.65z"/>
			<path style="fill:#E0BC90;" d="M317.98,563.24c7.89-2.44,15.74-4.77,23.53-7c-8.56,7.04-16.78,12.84-24.19,17.58
				c-2.27-0.8-4.58-1.65-6.94-2.57c-2.67-1.04-5.23-2.09-7.7-3.16C307.78,566.43,312.88,564.82,317.98,563.24z"/>
			<path style="fill:#E9C99F;" d="M310.38,571.25c2.36,0.92,4.67,1.77,6.94,2.57c-37.89,12.26-76.34,25.39-115.3,39.46
				c-11.42,4.13-22.76,8.29-34.02,12.49c-0.69-1.38-1.25-2.82-1.47-4.11c37.64-17.83,81.64-35.41,126.25-50.31
				c1.14-0.38,2.28-0.76,3.42-1.14c2.16-0.71,4.31-1.42,6.47-2.12h0.01C305.15,569.16,307.71,570.21,310.38,571.25z"/>
			<path style="fill:#F4DEC6;" d="M291.64,286.11c4.72,1.39,8.21,5.4,8.97,10.24c-7.64,1.18-12.56,1.94-12.56,1.94l-6.93,10.64
				c-3.76-2.45-6.1-6.83-5.73-11.62c0.18-2.42,1.04-4.62,2.36-6.45c0.01-0.01,0.02-0.03,0.03-0.04c2.51-3.44,6.69-5.54,11.25-5.19
				C289.93,285.7,290.81,285.86,291.64,286.11z"/>
			<path style="fill:#E9C99F;" d="M293.29,548.25c2.05,8.21,2.78,15.69,2.91,21.96c-1.14,0.38-2.28,0.76-3.42,1.14
				c-17.72,3.31-39.21,5.18-63.27,2.69c-5.75-0.59-11.23-1.39-16.47-2.35c4.66-4.77,9.56-9.55,15.88-14.11
				c6.94-5.01,17.72-11.28,33.51-15.28c6.93,1.34,17.37,2.19,26.67-3.09c0.42-0.24,0.82-0.48,1.21-0.73
				C291.39,541.46,292.41,544.72,293.29,548.25z"/>
			<path style="fill:#E0BC90;" d="M292.77,307.66c0.22,0.75,0.39,1.48,0.54,2.19c-1.89,0.86-4.02,1.27-6.24,1.1
				c-2.2-0.17-4.23-0.89-5.95-2.02l6.93-10.64C289.81,300.62,291.65,303.74,292.77,307.66z"/>
			<path style="fill:#E9C99F;" d="M293.31,309.85c-2.25,3.31-5.66,8.16-10.12,13.79c-10.08,12.71-16.26,17.67-22.99,25.64
				c-5.43,6.42-12.35,16.15-18.26,30.2c-0.55,7.13-1.1,14.26-1.65,21.39c-1.08-2.96-3.46-8.27-8.56-13.19
				c-0.4-0.39-0.8-0.75-1.21-1.11l50.6-77.64c1.72,1.13,3.75,1.85,5.95,2.02C289.29,311.12,291.42,310.71,293.31,309.85z"/>
			<path style="fill:#F4DEC6;" d="M281.12,308.93l-50.6,77.64c-5.73-5.02-11.7-6.9-14.63-7.63c3.21-2.7,6.42-5.4,9.62-8.1
				c5.13-10.87,11.35-22.6,18.91-34.8c11.07-17.86,22.61-32.87,33.33-45.18c-1.32,1.83-2.18,4.03-2.36,6.45
				C275.02,302.1,277.36,306.48,281.12,308.93z"/>
			<path style="fill:#F4DEC6;" d="M229.51,574.04c24.06,2.49,45.55,0.62,63.27-2.69c-44.61,14.9-88.61,32.48-126.25,50.31
				c-1.43-8.6,0.54-15.74,2.18-19.91c2.84-0.87,7.22-2.37,12.3-4.78c15.16-7.21,23.15-16.21,32.03-25.28
				C218.28,572.65,223.76,573.45,229.51,574.04z"/>
			<path style="fill:#EFD7B8;" d="M240.29,400.87c-5.14,3.49-10.27,6.97-15.41,10.46c-5.27-6.8-10.54-13.59-15.81-20.39
				c2.27-4,4.55-8,6.82-12c2.93,0.73,8.9,2.61,14.63,7.63c0.41,0.36,0.81,0.72,1.21,1.11C236.83,392.6,239.21,397.91,240.29,400.87z
				"/>
			<path style="fill:#FC8B60;" d="M168,625.77c-2.48,6.84-4.89,14.26-7.09,22.23c-1.79,6.48-3.28,12.7-4.52,18.63
				c0.39,3.67,2.22,10.03-1.32,14.33c-1.56,1.89-4.51,3.82-7.28,3.31c-1.21-3.86-2.34-8.06-3.31-12.57
				c-1.88-8.79-2.73-16.87-3.01-23.91c1.86-6.64,3.57-13.81,5-21.5c1.8-9.65,2.9-19.62,3.53-27.85c6.61,0.24,13.22,0.49,19.84,0.73
				c-0.31,0.65-0.71,1.52-1.13,2.58c-1.64,4.17-3.61,11.31-2.18,19.91C166.75,622.95,167.31,624.39,168,625.77z"/>
			<path style="fill:#FCBF60;" d="M139.86,598.07c3.38,0.13,6.76,0.25,10.14,0.37c-0.63,8.23-1.73,18.2-3.53,27.85
				c-1.43,7.69-3.14,14.86-5,21.5c-1.22,4.39-2.51,8.54-3.82,12.45c-0.57-4.77-0.6-8.59-0.36-12.45c0-0.01,0-0.01,0-0.02
				c0.34-5.44,1.21-10.96,1.9-19.28C139.79,621.25,140.33,610.85,139.86,598.07z"/>
			<path style="fill:#FC6460;" d="M144.48,671.7c0.97,4.51,2.1,8.71,3.31,12.57c-7.44-1.38-9.62-19.65-10.14-24.03
				c1.31-3.91,2.6-8.06,3.82-12.45C141.75,654.83,142.6,662.91,144.48,671.7z"/>
			<path style="fill:#FC6460;" d="M139.86,598.07c0.47,12.78-0.07,23.18-0.67,30.42c-0.69,8.32-1.56,13.84-1.9,19.28
				c-1.2-9.87-1.65-21.89,0.03-35.37C137.96,607.28,138.84,602.49,139.86,598.07z"/>
		</g>
	</g>
</g>
</svg>
